<svg xmlns="http://www.w3.org/2000/svg" viewBox="0 0 800 500">
  <!-- Background -->
  <rect width="800" height="500" fill="#f8f9fa" rx="5" ry="5" />
  
  <!-- Header -->
  <rect x="20" y="20" width="760" height="60" fill="#ffffff" rx="5" ry="5" stroke="#e0e0e0" stroke-width="1" />
  <text x="40" y="55" font-family="Arial" font-size="20" font-weight="bold" fill="#333333">Security Roadmap</text>
  
  <!-- View Controls -->
  <rect x="420" y="35" width="100" height="30" fill="#f8f9fa" rx="15" ry="15" stroke="#e0e0e0" stroke-width="1" />
  <text x="470" y="55" font-family="Arial" font-size="12" fill="#666666" text-anchor="middle">Month View</text>
  
  <rect x="530" y="35" width="100" height="30" fill="#4a75f5" rx="15" ry="15" />
  <text x="580" y="55" font-family="Arial" font-size="12" fill="white" text-anchor="middle">Gantt View</text>
  
  <rect x="640" y="35" width="120" height="30" fill="#f8f9fa" rx="15" ry="15" stroke="#e0e0e0" stroke-width="1" />
  <text x="700" y="55" font-family="Arial" font-size="12" fill="#666666" text-anchor="middle">Calendar View</text>
  
  <!-- Date Range Selector -->
  <rect x="20" y="90" width="760" height="40" fill="#ffffff" rx="5" ry="5" stroke="#e0e0e0" stroke-width="1" />
  <text x="40" y="115" font-family="Arial" font-size="14" fill="#666666">Date Range:</text>
  <rect x="140" y="95" width="130" height="30" fill="#f8f9fa" rx="5" ry="5" stroke="#e0e0e0" stroke-width="1" />
  <text x="160" y="115" font-family="Arial" font-size="12" fill="#333333">Jan 1, 2025</text>
  <text x="280" y="115" font-family="Arial" font-size="12" fill="#333333">to</text>
  <rect x="310" y="95" width="130" height="30" fill="#f8f9fa" rx="5" ry="5" stroke="#e0e0e0" stroke-width="1" />
  <text x="330" y="115" font-family="Arial" font-size="12" fill="#333333">Dec 31, 2025</text>
  <rect x="460" y="95" width="100" height="30" fill="#4a75f5" rx="5" ry="5" />
  <text x="510" y="115" font-family="Arial" font-size="12" fill="white" text-anchor="middle">Apply</text>
  
  <!-- Gantt Chart Header -->
  <rect x="20" y="140" width="180" height="40" fill="#f8f9fa" rx="5" ry="5" />
  <text x="40" y="165" font-family="Arial" font-size="14" font-weight="bold" fill="#666666">Initiative</text>
  
  <rect x="200" y="140" width="60" height="40" fill="#f8f9fa" rx="0" ry="0" />
  <text x="230" y="165" font-family="Arial" font-size="10" fill="#666666" text-anchor="middle">Jan '25</text>
  
  <rect x="260" y="140" width="60" height="40" fill="#f8f9fa" rx="0" ry="0" />
  <text x="290" y="165" font-family="Arial" font-size="10" fill="#666666" text-anchor="middle">Feb '25</text>
  
  <rect x="320" y="140" width="60" height="40" fill="#f8f9fa" rx="0" ry="0" />
  <text x="350" y="165" font-family="Arial" font-size="10" fill="#666666" text-anchor="middle">Mar '25</text>
  
  <rect x="380" y="140" width="60" height="40" fill="#f8f9fa" rx="0" ry="0" />
  <text x="410" y="165" font-family="Arial" font-size="10" fill="#666666" text-anchor="middle">Apr '25</text>
  
  <rect x="440" y="140" width="60" height="40" fill="#f8f9fa" rx="0" ry="0" />
  <text x="470" y="165" font-family="Arial" font-size="10" fill="#666666" text-anchor="middle">May '25</text>
  
  <rect x="500" y="140" width="60" height="40" fill="#f8f9fa" rx="0" ry="0" />
  <text x="530" y="165" font-family="Arial" font-size="10" fill="#666666" text-anchor="middle">Jun '25</text>
  
  <rect x="560" y="140" width="60" height="40" fill="#f8f9fa" rx="0" ry="0" />
  <text x="590" y="165" font-family="Arial" font-size="10" fill="#666666" text-anchor="middle">Jul '25</text>
  
  <rect x="620" y="140" width="60" height="40" fill="#f8f9fa" rx="0" ry="0" />
  <text x="650" y="165" font-family="Arial" font-size="10" fill="#666666" text-anchor="middle">Aug '25</text>
  
  <rect x="680" y="140" width="60" height="40" fill="#f8f9fa" rx="0" ry="0" />
  <text x="710" y="165" font-family="Arial" font-size="10" fill="#666666" text-anchor="middle">Sep '25</text>
  
  <rect x="740" y="140" width="40" height="40" fill="#f8f9fa" rx="0" ry="0" />
  <text x="760" y="165" font-family="Arial" font-size="10" fill="#666666" text-anchor="middle">+</text>
  
  <!-- Gantt Chart Grid Lines -->
  <line x1="200" y1="140" x2="200" y2="460" stroke="#e0e0e0" stroke-width="1" />
  <line x1="260" y1="140" x2="260" y2="460" stroke="#e0e0e0" stroke-width="1" />
  <line x1="320" y1="140" x2="320" y2="460" stroke="#e0e0e0" stroke-width="1" />
  <line x1="380" y1="140" x2="380" y2="460" stroke="#e0e0e0" stroke-width="1" />
  <line x1="440" y1="140" x2="440" y2="460" stroke="#e0e0e0" stroke-width="1" />
  <line x1="500" y1="140" x2="500" y2="460" stroke="#e0e0e0" stroke-width="1" />
  <line x1="560" y1="140" x2="560" y2="460" stroke="#e0e0e0" stroke-width="1" />
  <line x1="620" y1="140" x2="620" y2="460" stroke="#e0e0e0" stroke-width="1" />
  <line x1="680" y1="140" x2="680" y2="460" stroke="#e0e0e0" stroke-width="1" />
  <line x1="740" y1="140" x2="740" y2="460" stroke="#e0e0e0" stroke-width="1" />
  
  <!-- Today Marker -->
  <line x1="350" y1="140" x2="350" y2="460" stroke="#e74c3c" stroke-width="2" stroke-dasharray="5,5" />
  <rect x="340" y="140" width="20" height="20" fill="#e74c3c" rx="10" ry="10" />
  <text x="350" y="155" font-family="Arial" font-size="12" fill="white" text-anchor="middle">T</text>
  
  <!-- Initiative 1: MFA Implementation -->
  <rect x="20" y="190" width="180" height="40" fill="#ffffff" rx="0" ry="0" stroke="#e0e0e0" stroke-width="1" />
  <text x="40" y="215" font-family="Arial" font-size="12" font-weight="bold" fill="#333333">Multi-Factor Authentication</text>
  
  <rect x="200" y="195" width="230" height="30" rx="3" ry="3" fill="#3498db" opacity="0.8" />
  <rect x="200" y="195" width="138" height="30" rx="3" ry="3" fill="#3498db" />
  <text x="220" y="215" font-family="Arial" font-size="11" fill="white">60% Complete</text>
  <text x="350" y="215" font-family="Arial" font-size="11" fill="white">Jun 29, 2025</text>
  
  <!-- Initiative 2: Vulnerability Management -->
  <rect x="20" y="240" width="180" height="40" fill="#ffffff" rx="0" ry="0" stroke="#e0e0e0" stroke-width="1" />
  <text x="40" y="265" font-family="Arial" font-size="12" font-weight="bold" fill="#333333">Vulnerability Management</text>
  
  <rect x="260" y="245" width="420" height="30" rx="3" ry="3" fill="#9b59b6" opacity="0.8" />
  <rect x="260" y="245" width="84" height="30" rx="3" ry="3" fill="#9b59b6" />
  <text x="280" y="265" font-family="Arial" font-size="11" fill="white">20%</text>
  <text x="570" y="265" font-family="Arial" font-size="11" fill="white">Aug 14, 2025</text>
  
  <!-- Initiative 3: Data Loss Prevention -->
  <rect x="20" y="290" width="180" height="40" fill="#ffffff" rx="0" ry="0" stroke="#e0e0e0" stroke-width="1" />
  <text x="40" y="315" font-family="Arial" font-size="12" font-weight="bold" fill="#333333">Data Loss Prevention</text>
  
  <rect x="380" y="295" width="360" height="30" rx="3" ry="3" fill="#2ecc71" opacity="0.8" />
  <rect x="380" y="295" width="0" height="30" rx="3" ry="3" fill="#2ecc71" />
  <text x="400" y="315" font-family="Arial" font-size="11" fill="white">Not Started</text>
  <text x="620" y="315" font-family="Arial" font-size="11" fill="white">Dec 15, 2025</text>
  
  <!-- Initiative 4: Secure Development -->
  <rect x="20" y="340" width="180" height="40" fill="#ffffff" rx="0" ry="0" stroke="#e0e0e0" stroke-width="1" />
  <text x="40" y="365" font-family="Arial" font-size="12" font-weight="bold" fill="#333333">Secure Development</text>
  
  <rect x="320" y="345" width="300" height="30" rx="3" ry="3" fill="#f39c12" opacity="0.8" />
  <rect x="320" y="345" width="90" height="30" rx="3" ry="3" fill="#f39c12" />
  <text x="340" y="365" font-family="Arial" font-size="11" fill="white">30%</text>
  <text x="520" y="365" font-family="Arial" font-size="11" fill="white">Oct 31, 2025</text>
  
  <!-- Initiative 5: Network Segmentation -->
  <rect x="20" y="390" width="180" height="40" fill="#ffffff" rx="0" ry="0" stroke="#e0e0e0" stroke-width="1" />
  <text x="40" y="415" font-family="Arial" font-size="12" font-weight="bold" fill="#333333">Network Segmentation</text>
  
  <rect x="500" y="395" width="240" height="30" rx="3" ry="3" fill="#e74c3c" opacity="0.8" />
  <rect x="500" y="395" width="0" height="30" rx="3" ry="3" fill="#e74c3c" />
  <text x="520" y="415" font-family="Arial" font-size="11" fill="white">Planning</text>
  <text x="650" y="415" font-family="Arial" font-size="11" fill="white">Mar 15, 2026</text>
  
  <!-- Legend -->
  <rect x="20" y="450" width="760" height="30" fill="#ffffff" rx="5" ry="5" stroke="#e0e0e0" stroke-width="1" />
  <circle cx="40" cy="465" r="5" fill="#3498db" />
  <text x="55" y="469" font-family="Arial" font-size="10" fill="#666666">Access Control</text>
  
  <circle cx="150" cy="465" r="5" fill="#9b59b6" />
  <text x="165" y="469" font-family="Arial" font-size="10" fill="#666666">Infrastructure</text>
  
  <circle cx="260" cy="465" r="5" fill="#2ecc71" />
  <text x="275" y="469" font-family="Arial" font-size="10" fill="#666666">Data Protection</text>
  
  <circle cx="370" cy="465" r="5" fill="#f39c12" />
  <text x="385" y="469" font-family="Arial" font-size="10" fill="#666666">Application Security</text>
  
  <circle cx="490" cy="465" r="5" fill="#e74c3c" />
  <text x="505" y="469" font-family="Arial" font-size="10" fill="#666666">Network Security</text>
  
  <line x1="580" y1="460" x2="595" y2="470" stroke="#e74c3c" stroke-width="2" stroke-dasharray="5,5" />
  <text x="605" y="469" font-family="Arial" font-size="10" fill="#666666">Today</text>
  
  <rect x="650" y="458" width="30" height="14" rx="3" ry="3" fill="#3498db" />
  <text x="710" y="469" font-family="Arial" font-size="10" fill="#666666">Progress Complete</text>
</svg>
